# xmcd
#
# Track frame offsets: 
#        180
#        12458
#        27777
#        40431
#        53042
#        64582
#        78722
#        91796
#        104943
#        116843
#        130774
#        146008
#        158460
#        171157
#        183302
#        195684
#        209281
#        225906
#        238099
#        252260
#        263253
#        275766
#        293588
#        306570
#
# Disc length: 4480 seconds
#
# Revision: 3
# Processed by: cddbd v1.5.2PL0 Copyright (c) Steve Scherf et al.
# Submitted via: ExactAudioCopyFreeDBPlugin 1.0
#
DISCID=55117e18
DTITLE=Various Artist - Lost Deep Soul Treasures [S.O.S. Sounds of So
DTITLE=ul]
DYEAR=2001
DGENRE=Soul
TTITLE0=Marvin L. Sims - Danger
TTITLE1=Jarvis Jackson - Something I Never Had
TTITLE2=Little Dooley - Just Like a Child
TTITLE3=Bobby Womack - I Wonder
TTITLE4=Syl Johnson - The Love I Found in You
TTITLE5=Don Hart and James Shorter - I Shed a Tear
TTITLE6=Sam Williams - Miracle Worker
TTITLE7=Sandra Phillips - When Midnight Comes
TTITLE8=Betty Green - He's Down on Me
TTITLE9=Sisters Love - Do It Right Now
TTITLE10=Moody Scott - Darling Please Don't Take My Love
TTITLE11=James Chapman - In Memory of Martin Luther King
TTITLE12=Jeb Stuart - Dreamers Hall of Fame
TTITLE13=Oscar Perry - I Found a True Love
TTITLE14=Willie James - Down on My Knees
TTITLE15=Terry and The Tyrants - Weep No More
TTITLE16=Virgil Griffin - A Forgotten Lover
TTITLE17=David Robinson - I Care for You
TTITLE18=Them Two - Am I a Good Man
TTITLE19=Ray Lewis - Getting Over You
TTITLE20=Louis Jones - That's Cuz I Love You
TTITLE21=Billy Mack - I Can't Sleep
TTITLE22=Claudia Whitten - Bring Me All the Love You Got
TTITLE23=Little Scotty - Slow That Disco Down
EXTD=
EXTT0=
EXTT1=
EXTT2=
EXTT3=
EXTT4=
EXTT5=
EXTT6=
EXTT7=
EXTT8=
EXTT9=
EXTT10=
EXTT11=
EXTT12=
EXTT13=
EXTT14=
EXTT15=
EXTT16=
EXTT17=
EXTT18=
EXTT19=
EXTT20=
EXTT21=
EXTT22=
EXTT23=
PLAYORDER=
